<svg height="512pt" viewBox="-103 0 512 512.16996" width="512pt" xmlns="http://www.w3.org/2000/svg"><path d="m111.15625 156.445312-6.910156 76.082032-33.964844-3.558594 7.851562-86.160156v-.085938zm0 0" fill="#e3e7f2"/><path d="m196.148438 156.445312 6.910156 76.082032 33.964844-3.558594-7.851563-86.160156v-.085938zm0 0" fill="#a4c2f7"/><path d="m102.453125 311.519531-56.832031 178.605469c-2.078125 6.65625-9.015625 10.507812-15.761719 8.753906-6.75-1.757812-10.929687-8.5-9.496094-15.328125l39.335938-188.585937zm0 0" fill="#a4c2f7"/><path d="m247.605469 294.964844 39.335937 188.585937c1.433594 6.828125-2.746094 13.570313-9.496094 15.328125-6.746093 1.753906-13.6875-2.097656-15.761718-8.753906l-56.832032-178.605469zm0 0" fill="#7facfa"/><path d="m88.882812 354.1875h129.539063l10.835937 34.132812h-151.210937zm0 0" fill="#e3e7f2"/><path d="m290.015625 37.089844c-4.949219 48.722656-29.867187 125.097656-136.363281 125.097656-4.4375 0-8.703125-.171875-12.800782-.425781-95.742187-5.804688-118.785156-77.996094-123.5625-124.671875-.894531-11.542969 6.066407-22.25 16.980469-26.113282 6.570313-2.621093 13.808594-3.066406 20.652344-1.28125 28.148437 7.214844 56.921875 11.730469 85.929687 13.484376 8.105469.425781 12.800782.425781 12.800782.425781 31.625-.804688 63.070312-5.039063 93.78125-12.628907l4.949218-1.28125c20.054688-5.203124 39.59375 8.960938 37.632813 27.394532zm0 0" fill="#d4e1f4"/><path d="m295.816406 258.441406c-9.898437 18.773438-33.277344 39.765625-85.246094 54.359375-37.230468 10.414063-76.605468 10.414063-113.835937 0-51.96875-14.59375-75.347656-35.585937-85.246094-54.359375-3.195312-6.144531-3.6875-13.347656-1.355469-19.871094 2.332032-6.527343 7.273438-11.785156 13.640626-14.515624 4.738281-2.007813 9.953124-2.597657 15.019531-1.707032 33.539062 5.527344 67.402343 8.832032 101.375 9.898438h1.367187c7.679688.253906 12.117188.253906 12.117188.253906 34.910156-.453125 69.75-3.277344 104.277344-8.445312 3.5-.511719 6.996093-1.109376 10.582031-1.707032 9.445312-1.859375 19.125 1.832032 24.9375 9.511719 5.808593 7.679687 6.726562 18 2.367187 26.582031zm0 0" fill="#d4e1f4"/><path d="m264.414062 37.089844c-4.777343 46.675781-27.816406 118.867187-123.5625 124.671875-95.742187-5.804688-118.785156-77.996094-123.5625-124.671875-.894531-11.542969 6.066407-22.25 16.980469-26.113282 30.710938 7.589844 62.15625 11.824219 93.78125 12.628907 0 0 4.695313 0 12.800781-.425781 29.007813-1.753907 57.78125-6.269532 85.929688-13.484376 6.84375-1.785156 14.082031-1.339843 20.652344 1.28125 10.914062 3.863282 17.875 14.570313 16.980468 26.113282zm0 0" fill="#e3e7f2"/><path d="m270.21875 258.441406c-9.898438 18.773438-33.28125 39.765625-85.25 54.359375-14.398438 4.039063-29.1875 6.527344-44.117188 7.421875-14.925781-.894531-29.71875-3.382812-44.117187-7.421875-51.96875-14.59375-75.347656-35.585937-85.246094-54.359375-3.195312-6.144531-3.6875-13.347656-1.355469-19.871094 2.332032-6.527343 7.273438-11.785156 13.640626-14.515624 34.53125 5.167968 69.367187 7.992187 104.277343 8.445312 0 0 4.4375 0 12.117188-.253906h1.367187c33.972656-1.066406 67.839844-4.371094 101.375-9.898438 5.066406-.890625 10.28125-.300781 15.019532 1.707032 6.367187 2.730468 11.3125 7.988281 13.640624 14.515624 2.332032 6.523438 1.84375 13.726563-1.351562 19.871094zm0 0" fill="#e3e7f2"/><g fill="#fff"><path d="m165.367188 320.128906c-12.867188-.847656-25.625-2.886718-38.117188-6.089844l-1.484375 4.667969c5.015625.671875 10.050781 1.226563 15.085937 1.515625 8.167969.449219 16.355469.417969 24.515626-.09375zm0 0"/><path d="m78.011719 144.089844-7.21875 79.273437c8.585937 1.382813 17.066406 2.558594 25.277343 3.582031l7.542969-82.855468c-43.914062-25.550782-57.242187-72.996094-60.722656-107-.894531-11.542969 6.066406-22.25 16.980469-26.113282l.144531-.042968c-1.707031-.425782-3.371094-.785156-5.121094-1.238282-6.84375-1.785156-14.078125-1.339843-20.648437 1.28125-10.914063 3.863282-17.878906 14.570313-16.980469 26.113282 3.503906 34.003906 16.835937 81.449218 60.746094 107zm0 0"/><path d="m140.851562 161.761719c4.097657.253906 8.363282.425781 12.800782.425781 4.113281 0 7.894531-.316406 11.765625-.539062-9.691407-.617188-19.308594-2.089844-28.738281-4.402344l-.359376 4.027344c1.546876.128906 2.945313.394531 4.53125.488281zm0 0"/><path d="m45.960938 483.550781 38.519531-184.652343c-26.316407-12.527344-40.328125-27.050782-47.394531-40.457032-3.195313-6.144531-3.683594-13.347656-1.351563-19.871094 2.328125-6.527343 7.273437-11.785156 13.640625-14.515624h.050781c-3.53125-.546876-7.066406-1.074219-10.632812-1.707032-5.066407-.890625-10.28125-.300781-15.019531 1.707032-6.367188 2.730468-11.308594 7.988281-13.640626 14.515624-2.332031 6.523438-1.839843 13.726563 1.355469 19.871094 7.0625 13.40625 21.074219 27.929688 47.394531 40.457032l-38.519531 184.652343c-1.433593 6.828125 2.746094 13.570313 9.496094 15.328125 6.746094 1.753906 13.683594-2.097656 15.761719-8.753906l.410156-1.289062c-.386719-1.738282-.410156-3.535157-.070312-5.285157zm0 0"/><path d="m68.054688 300.972656-22.648438 108.578125-15.761719 75.5625-.929687 4.523438c-.117188.5625-.117188 1.144531 0 1.707031.210937 1.117188.835937 2.117188 1.75 2.789062 1.867187 1.371094 4.46875 1.113282 6.035156-.597656.375-.402344.664062-.878906.851562-1.398437l1.332032-4.136719 2.925781-9.199219 5.84375-18.398437 46.867187-147.175782 16.265626 5.171876-46.816407 147.105468-5.851562 18.390625-2.929688 9.199219-1.644531 5.042969c-.933594 2.515625-2.335938 4.832031-4.132812 6.824219-5.488282 6.066406-13.9375 8.507812-21.816407 6.304687-7.882812-2.199219-13.839843-8.664063-15.394531-16.695313-.519531-2.617187-.542969-5.3125-.070312-7.9375l1.007812-4.933593 15.769531-75.59375 22.65625-108.613281zm0 0"/></g><path d="m44.015625 374.410156c3.398437.75 6.910156-.640625 8.875-3.511718 1.96875-2.867188 1.992187-6.644532.066406-9.542969l-1.046875-1.253907c-.394531-.421874-.851562-.777343-1.347656-1.066406-.421875-.347656-.894531-.621094-1.402344-.8125-.53125-.210937-1.074218-.382812-1.628906-.519531-2.222656-.425781-4.519531.003906-6.441406 1.195313-.921875.640624-1.710938 1.453124-2.332032 2.386718-1.910156 2.855469-1.96875 6.570313-.144531 9.480469.644531.917969 1.453125 1.707031 2.390625 2.324219.910156.628906 1.933594 1.082031 3.011719 1.320312zm0 0" fill="#428dff"/><path d="m267.027344 213.917969c-7.527344 1.304687-15.011719 2.429687-22.351563 3.410156l-6.542969-68.308594c43.886719-28.058593 56.90625-77.3125 60.390626-111.042969 1.085937-10.863281-3.296876-21.558593-11.691407-28.535156-10.144531-8.5-23.804687-11.496094-36.574219-8.023437-31.585937 8.179687-63.992187 12.761719-96.605468 13.664062-32.613282-.902343-65.023438-5.484375-96.605469-13.664062-12.773437-3.472657-26.441406-.460938-36.574219 8.058593-8.394531 6.964844-12.785156 17.644532-11.714844 28.5 3.480469 33.722657 16.492188 82.96875 60.363282 111.027344l-6.492188 68.335938c-7.339844-.992188-14.824218-2.117188-22.351562-3.414063-12.964844-2.34375-26.121094 2.964844-33.824219 13.652344-7.472656 10.1875-8.445313 23.757813-2.507813 34.910156 10.738282 18.25 26.824219 32.765625 46.078126 41.582031l-5.605469 26.878907c-.664063 3.003906.339843 6.128906 2.625 8.183593 2.285156 2.054688 5.5 2.722657 8.414062 1.75 2.914063-.976562 5.078125-3.441406 5.667969-6.457031l4.820312-23.117187c8.554688 3.464844 17.285157 6.480468 26.15625 9.035156l-44.613281 140.015625-5.84375 18.414063-2.929687 9.199218-1.328125 4.140625c-.1875.519531-.476563.992188-.855469 1.398438-1.5625 1.707031-4.164062 1.964843-6.03125.597656-.917969-.675781-1.542969-1.671875-1.75-2.792969-.117188-.5625-.117188-1.140625 0-1.707031l.929688-4.519531 15.761718-75.5625 1.707032-8.355469c.691406-3.019531-.304688-6.175781-2.609376-8.25-2.300781-2.074219-5.546874-2.734375-8.476562-1.730469s-5.085938 3.519532-5.632812 6.566406l-1.707032 8.355469-15.769531 75.597657-1.003906 4.929687c-.472657 2.628906-.449219 5.320313.066406 7.9375 1.5625 8.03125 7.53125 14.492187 15.414063 16.683594 7.886718 2.195312 16.332031-.257813 21.816406-6.332031 1.796875-1.996094 3.199218-4.3125 4.132812-6.828126l1.644532-5.042968 2.925781-9.199219 5.855469-18.390625 20.445312-64.347656h138.804688l30.488281 95.820312c3.410156 11.035156 14.894531 17.4375 26.074219 14.527344 11.175781-2.90625 18.089843-14.09375 15.6875-25.390625l-37.988282-182.050781c19.253906-8.8125 35.339844-23.328125 46.078125-41.582032 5.9375-11.152343 4.960938-24.71875-2.507812-34.910156-7.722657-10.683594-20.894531-15.980468-33.859375-13.617187zm-39.253906 5.484375c-5.867188.644531-11.527344 1.210937-16.980469 1.707031l-5.4375-57.292969c5.644531-1.652344 11.171875-3.671875 16.554687-6.039062zm-74.121094-48.683594c11.703125.042969 23.386718-.957031 34.910156-2.984375l5.179688 54.65625c-23.679688 1.570313-39.792969 1.621094-40.105469 1.621094-.316407 0-16.410157-.050781-40.109375-1.621094l5.179687-54.65625c11.539063 2.03125 23.230469 3.03125 34.945313 2.984375zm-127.914063-134.492188c-.457031-5.292968 1.75-10.464843 5.886719-13.796874 4.132812-3.472657 9.367188-5.355469 14.761719-5.308594 2.148437.015625 4.285156.300781 6.359375.851562 32.976562 8.601563 66.835937 13.359375 100.90625 14.175782 34.070312-.816407 67.929687-5.574219 100.90625-14.175782 7.367187-2.042968 15.265625-.363281 21.164062 4.5 4.121094 3.335938 6.3125 8.503906 5.84375 13.789063-5.527344 53.539062-32.222656 117.390625-127.914062 117.390625-24.957032.859375-49.6875-4.96875-71.628906-16.886719-.121094-.058594-.214844-.152344-.332032-.210937-38.539062-22.605469-52.183594-63.832032-55.953125-100.328126zm59.691407 121.515626c5.378906 2.367187 10.910156 4.386718 16.554687 6.039062l-5.4375 57.285156c-5.457031-.476562-11.117187-1.046875-16.980469-1.707031zm113.246093 166.773437 8.078125 25.40625h-106.203125l8.078125-25.40625c29.6875 6.28125 60.359375 6.28125 90.046875 0zm-109.023437 59.539063 5.425781-17.066407h117.113281l5.425782 17.066407zm188.929687 105.4375c.28125 1.363281-.074219 2.78125-.964843 3.847656-.847657 1.050781-2.125 1.65625-3.472657 1.648437-1.988281.007813-3.746093-1.285156-4.328125-3.183593l-54.570312-171.519532c8.871094-2.554687 17.601562-5.570312 26.15625-9.039062zm9.691407-235.042969c-11.253907 21.265625-38.945313 38.613281-80.050782 50.175781-35.6875 10.042969-73.453125 10.042969-109.140625 0-41.105469-11.5625-68.796875-28.910156-80.050781-50.175781-2.917969-5.386719-2.4375-11.980469 1.238281-16.886719 3.871094-5.40625 10.53125-8.070312 17.066407-6.828125 38.449218 6.417969 77.335937 9.875 116.316406 10.34375 38.972656-.46875 77.847656-3.929687 116.292968-10.34375 6.53125-1.242187 13.191407 1.421875 17.066407 6.828125 3.679687 4.898438 4.171875 11.492188 1.261719 16.886719zm0 0" fill="#428dff"/></svg>